<svg id="vector" xmlns="http://www.w3.org/2000/svg" width="32" height="32" viewBox="0 0 32 32"><path fill="#000000" d="M 19.985 4 C 22.411 4 24.43 5.765 24.853 8.094 L 24.879 8.248 L 26.881 8.78 C 27.54 8.955 28 9.557 28 10.246 L 28 25.077 C 28 25.915 27.328 26.594 26.5 26.594 C 26.366 26.594 26.233 26.576 26.104 26.54 L 19.985 24.846 L 13.387 26.822 C 13.111 26.907 12.816 26.911 12.538 26.831 L 5.637 25.001 C 4.668 24.724 4 23.83 4 22.813 L 4 8.853 C 4 8.015 4.672 7.336 5.5 7.336 C 5.618 7.336 5.736 7.35 5.85 7.378 L 12.842 9.077 L 15.07 8.398 L 15.066 8.439 C 15.343 5.941 17.44 4 19.985 4 Z M 20.859 16.585 L 20.78 16.672 L 20.694 16.751 C 20.212 17.147 19.503 17.072 19.111 16.585 L 18.659 16.013 C 16.837 13.678 15.702 11.775 15.254 10.305 L 15.204 10.134 L 14.311 10.37 C 13.981 10.457 13.75 10.758 13.75 11.104 L 13.75 25.123 L 19.012 23.741 C 19.004 23.697 19 23.653 19 23.607 L 19 19.059 C 19 18.64 19.336 18.3 19.75 18.3 C 20.164 18.3 20.5 18.64 20.5 19.059 L 20.5 23.546 L 26.5 25.123 L 26.5 11.104 C 26.5 10.758 26.269 10.457 25.939 10.37 L 24.784 10.065 L 24.803 9.989 C 24.402 11.612 23.088 13.811 20.859 16.585 Z M 6.25 8.965 C 5.836 8.965 5.5 9.305 5.5 9.724 L 5.5 22.763 C 5.5 23.108 5.731 23.41 6.061 23.497 L 12.25 25.123 L 12.25 11.104 C 12.25 10.758 12.019 10.457 11.689 10.37 L 6.439 8.99 L 6.345 8.972 L 6.25 8.965 Z M 19.985 5.609 C 18.119 5.609 16.607 7.16 16.607 9.073 C 16.607 10.349 17.733 12.528 19.985 15.609 L 20.382 15.058 C 22.369 12.267 23.363 10.272 23.363 9.073 C 23.363 7.16 21.851 5.609 19.985 5.609 Z M 20.125 7.687 C 21.161 7.687 22 8.535 22 9.582 C 22 10.629 21.161 11.477 20.125 11.477 C 19.089 11.477 18.25 10.629 18.25 9.582 C 18.25 8.535 19.089 7.687 20.125 7.687 Z M 20.125 8.824 C 19.711 8.824 19.375 9.163 19.375 9.582 C 19.375 10.001 19.711 10.34 20.125 10.34 C 20.539 10.34 20.875 10.001 20.875 9.582 C 20.875 9.163 20.539 8.824 20.125 8.824 Z" stroke-width="1" fill-rule="evenodd" id="path_0"/></svg>